<svg xmlns="http://www.w3.org/2000/svg" viewBox="0 0 512 512">
  <defs>
    <linearGradient id="bg" x1="0%" x2="100%" y1="0%" y2="100%">
      <stop offset="0%" stop-color="#07101b" />
      <stop offset="100%" stop-color="#111b2e" />
    </linearGradient>
    <linearGradient id="metal" x1="0%" x2="100%" y1="0%" y2="100%">
      <stop offset="0%" stop-color="#f5f7fb" />
      <stop offset="100%" stop-color="#657384" />
    </linearGradient>
    <linearGradient id="shell" x1="0%" x2="0%" y1="0%" y2="100%">
      <stop offset="0%" stop-color="#ff685e" />
      <stop offset="100%" stop-color="#c71d2d" />
    </linearGradient>
  </defs>
  <rect width="512" height="512" rx="120" fill="url(#bg)" />
  <g transform="translate(54 34)">
    <ellipse cx="203" cy="400" rx="134" ry="24" fill="#02060c" opacity="0.28" />
    <rect x="122" y="120" width="52" height="136" rx="26" fill="url(#metal)" />
    <rect x="232" y="120" width="52" height="136" rx="26" fill="url(#metal)" />
    <rect x="138" y="232" width="34" height="70" rx="14" fill="#d12935" />
    <rect x="234" y="232" width="34" height="70" rx="14" fill="#d12935" />
    <rect x="138" y="282" width="52" height="22" rx="11" fill="#d12935" />
    <rect x="216" y="282" width="52" height="22" rx="11" fill="#d12935" />
    <rect x="136" y="190" width="134" height="176" rx="56" fill="url(#metal)" />
    <rect x="160" y="214" width="86" height="144" rx="40" fill="url(#shell)" />
    <rect x="156" y="50" width="100" height="136" rx="40" fill="url(#shell)" />
    <ellipse cx="206" cy="94" rx="64" ry="58" fill="url(#shell)" />
    <circle cx="182" cy="94" r="10" fill="#0d1320" />
    <circle cx="232" cy="94" r="10" fill="#0d1320" />
    <path d="M181 128c18 12 34 12 52 0" fill="none" stroke="#7d1120" stroke-width="8" stroke-linecap="round" />
    <path d="M168 36c-16-24-16-44 4-62" fill="none" stroke="#ff695f" stroke-width="8" stroke-linecap="round" />
    <path d="M246 34c19-24 20-45 3-63" fill="none" stroke="#ff695f" stroke-width="8" stroke-linecap="round" />
  </g>
</svg>
